<svg xmlns="http://www.w3.org/2000/svg">
    <defs>
        <symbol id="icon-chat" viewBox="0 0 32 32">
            <path stroke="currentColor" fill="none" stroke-linecap="round" stroke-linejoin="round" stroke-miterlimit="10" stroke-width="1.2" d="M24.684 15.539c3.072.785 5.274 2.876 5.274 5.333 0 .982-.35 2.705-2.697 3.277-2.218.538-3.439 1.357-3.729 2.492-.162.631.009 1.22.248 1.672-2.168-.614-7.552-2.432-9.2-5.58m-8.575-6.682c-3.123-.76-3.584-3.055-3.584-4.36 0-4.156 4.736-7.535 10.555-7.535 3.533 0 6.819 1.254 8.79 3.353 1.169 1.246 1.783 2.688 1.766 4.181-.06 5.735-9.48 8.935-12.885 9.908.307-.598.546-1.383.324-2.227-.392-1.52-2.022-2.603-4.966-3.32Zm11.034-6.792H8.582m8.457 3.814H8.582"/>
        </symbol>
        <symbol id="icon-lamp" viewBox="0 0 32 32">
            <path stroke="currentColor" fill="none" stroke-linecap="round" stroke-linejoin="round" stroke-miterlimit="10" stroke-width="1.2" d="m13.324 27.477.606 2.048s.221.896 1.885.845m2.518-2.893-.606 2.048s-.222.896-1.886.845m-.026-28.561V4.48m8.516 1.1-1.86 1.92M8.98 7.5 7.126 5.58m20.994 8.722h-2.671m-19.285 0h-2.68"/>
            <path stroke="currentColor" fill="none" stroke-linecap="round" stroke-linejoin="round" stroke-miterlimit="10" stroke-width="1.2" d="M20.977 19.746a7.502 7.502 0 0 0 2.33-5.444 7.51 7.51 0 1 0-12.553 5.564s.555.426 1.075.947c.52.52.436 1.75.436 1.75v4.12s-.035.368.05.521c.171.282.581.273.581.273h5.615s.427-.017.631-.222c.154-.153.111-.7.111-.7v-4.104s-.025-1.058.504-1.715c.188-.213 1.22-.99 1.22-.99Zm-8.704 4.429h5.572"/>
            <path stroke="currentColor" fill="none" stroke-linecap="round" stroke-linejoin="round" stroke-miterlimit="10" stroke-width="1.2" d="M18.1 13.875a1.45 1.45 0 1 0 0-2.901 1.45 1.45 0 0 0 0 2.901Z"/>
        </symbol>
        <symbol id="icon-managed" viewBox="0 0 32 32">
            <path stroke="currentColor" fill="none" stroke-linecap="round" stroke-linejoin="round" stroke-miterlimit="10" stroke-width="1.2" d="M8.217 16.068a3.567 3.567 0 1 0 0-7.133 3.567 3.567 0 0 0 0 7.133Z"/>
            <path stroke="currentColor" fill="none" stroke-linecap="round" stroke-miterlimit="10" stroke-width="1.2" d="M2.012 28.169s.571-4.856.87-6.99c.299-2.132 1.57-3.49 3.49-3.49h1.75l6.1 6.99h5.24s.393 3.49-2.62 3.49H11.62l-4.369-5.24"/>
            <path stroke="currentColor" fill="none" stroke-linecap="round" stroke-linejoin="round" stroke-width="1.2" d="M22.118 17.186a2.773 2.773 0 1 0 0-5.546 2.773 2.773 0 0 0 0 5.546Z"/>
            <path stroke="currentColor" fill="none" stroke-linecap="round" stroke-linejoin="round" stroke-width="1.2" d="M30.437 15.326a.41.41 0 0 1-.41.41H28.97a.42.42 0 0 0-.401.315 6.527 6.527 0 0 1-.726 1.741.414.414 0 0 0 .06.512l.674.674c.239.24.239.495.077.657l-1.297 1.297a.407.407 0 0 1-.58 0l-.751-.75a.424.424 0 0 0-.512-.06 6.823 6.823 0 0 1-1.741.725.41.41 0 0 0-.316.401v.956c0 .333-.188.52-.41.52h-1.834a.41.41 0 0 1-.41-.41v-1.057a.42.42 0 0 0-.316-.401 6.53 6.53 0 0 1-1.74-.726.414.414 0 0 0-.512.06l-.674.674c-.24.24-.495.24-.657.077l-1.298-1.297a.407.407 0 0 1 0-.58l.751-.751a.424.424 0 0 0 .06-.512 6.823 6.823 0 0 1-.725-1.741.41.41 0 0 0-.401-.316h-.956c-.333 0-.52-.188-.52-.41V13.5c0-.23.187-.41.52-.41h.956a.42.42 0 0 0 .4-.315 6.532 6.532 0 0 1 .726-1.741.414.414 0 0 0-.06-.512l-.75-.751a.407.407 0 0 1 0-.58l1.297-1.297c.162-.163.426-.163.657.076l.674.674a.424.424 0 0 0 .512.06 6.82 6.82 0 0 1 1.74-.725.418.418 0 0 0 .316-.401V6.503c0-.23.188-.41.41-.41h1.826c.23 0 .41.188.41.52v.956c0 .197.136.35.315.401a6.531 6.531 0 0 1 1.741.726.414.414 0 0 0 .512-.06l.751-.751a.407.407 0 0 1 .58 0l1.297 1.297c.163.162.163.427-.076.657l-.675.674a.424.424 0 0 0-.06.512c.316.538.564 1.118.726 1.741a.418.418 0 0 0 .401.316h1.058c.23 0 .41.188.41.41v1.834h.008Z"/>
        </symbol>
        <symbol id="icon-lead" viewBox="0 0 32 32">
            <path stroke="currentColor" fill="none" stroke-linejoin="round" stroke-miterlimit="10" stroke-width="1.2" d="M21.963 18.398c0-2.142-1.62-3.55-3.874-4.054l-1.92 1.92-1.92-1.92c-2.252.504-3.874 1.912-3.874 4.054m9.31-9.618a3.516 3.516 0 1 0-7.033.002 3.516 3.516 0 0 0 7.033-.001Zm-3.516 18.322a4.115 4.115 0 0 0 4.113-4.113 4.115 4.115 0 0 0-4.113-4.113 4.115 4.115 0 0 0-4.113 4.113 4.115 4.115 0 0 0 4.113 4.113Zm10.401 0a4.115 4.115 0 0 0 4.114-4.113 4.115 4.115 0 0 0-4.113-4.113 4.115 4.115 0 0 0-4.113 4.113 4.115 4.115 0 0 0 4.113 4.113ZM5.767 18.884a4.115 4.115 0 0 0-4.113 4.113 4.115 4.115 0 0 0 4.113 4.113 4.115 4.115 0 0 0 4.113-4.113 4.104 4.104 0 0 0-4.113-4.113Z"/>
        </symbol>
        <symbol id="icon-implementation" viewBox="0 0 32 32">
            <path stroke="currentColor" fill="none" stroke-linejoin="round" stroke-miterlimit="10" stroke-width="1.2" d="M12.382 10.684a3.318 3.318 0 0 1 1.681-6.178 3.318 3.318 0 0 1 3.319 3.32 3.313 3.313 0 0 1-2.082 3.08"/>
            <path stroke="currentColor" fill="none" stroke-linecap="round" stroke-linejoin="round" stroke-miterlimit="10" stroke-width="1.2" d="M15.288 13.474h1.4c.435 0 1.126.282 1.4.7h1.399c.657 0 1.399.615 1.399 1.4h1.382c.657 0 1.4.614 1.4 1.4v6.98c0 1.407-1.4 2.55-1.4 3.49v.529m-6.981-10.317V8.593a1.4 1.4 0 0 0-2.798 0v10.462l-.93.896-1.827-2.824c-1.118-1.536-2.824-.674-2.824 0 0 0 2.116 6.058 2.423 6.528.487.76 2.466 2.474 2.466 3.072v1.4m6.281-13.953v3.482m2.799-2.091v2.79m2.79 11.862v-2.09H10.406v2.09"/>
            <path stroke="currentColor" fill="none" stroke-linecap="round" stroke-linejoin="round" stroke-miterlimit="10" stroke-width="1.2" d="M11.966 13.287a5.958 5.958 0 0 1-3.746-5.53c0-1.46.53-2.799 1.4-3.831m2.756-1.844a5.917 5.917 0 0 1 1.792-.273 5.947 5.947 0 0 1 2.082 11.52"/>
        </symbol>
        <symbol id="icon-sales-solution" viewBox="0 0 32 32">
            <path stroke="currentColor" fill="none" stroke-linecap="round" stroke-miterlimit="10" stroke-width="1.2" d="M15.197 11.648a7.639 7.639 0 0 1 6.58-3.746 7.644 7.644 0 0 1 7.645 7.646 7.644 7.644 0 0 1-13.764 4.582"/>
            <path stroke="currentColor" fill="none" stroke-miterlimit="10" stroke-width="1.2" d="M21.776 23.185c1.687 0 3.055-3.423 3.055-7.646 0-4.222-1.368-7.646-3.055-7.646s-3.055 3.424-3.055 7.646c0 4.223 1.368 7.646 3.055 7.646Z"/>
            <path stroke="currentColor" fill="none" stroke-linecap="round" stroke-miterlimit="10" stroke-width="1.2" d="M17.195 15.54h12.22m-18.634 8.524v-6.656s2.91-.981 3.516-1.169c1.092-.341 1.758-1.041 1.758-2.347H6.096c-2.099 0-3.515.888-3.515 3.516v4.096c0 1.255.503 2.347 1.757 2.347h.59"/>
            <path stroke="currentColor" fill="none" stroke-linecap="round" stroke-linejoin="round" stroke-miterlimit="10" stroke-width="1.2" d="M4.92 17.408v6.306m3.215-11.042a2.526 2.526 0 1 0 0-5.052 2.526 2.526 0 0 0 0 5.052Z"/>
        </symbol>
        <symbol id="icon-tech-solution" viewBox="0 0 32 32">
            <path stroke="currentColor" fill="none" stroke-linecap="round" stroke-linejoin="round" stroke-width="1.2" d="M18.357 12.877a2.773 2.773 0 1 0 0-5.547 2.773 2.773 0 0 0 0 5.547Z"/>
            <path stroke="currentColor" fill="none" stroke-linecap="round" stroke-linejoin="round" stroke-width="1.2" d="M26.677 11.025a.41.41 0 0 1-.41.41H25.21a.42.42 0 0 0-.4.315 6.529 6.529 0 0 1-.726 1.741.414.414 0 0 0 .06.512l.674.674c.239.24.239.495.077.657l-1.297 1.306a.407.407 0 0 1-.58 0l-.752-.75a.424.424 0 0 0-.512-.06 6.823 6.823 0 0 1-1.74.725.41.41 0 0 0-.316.4v.957c0 .332-.188.52-.41.52h-1.834a.41.41 0 0 1-.41-.41v-1.058a.42.42 0 0 0-.316-.4 6.53 6.53 0 0 1-1.74-.726.414.414 0 0 0-.513.06l-.674.674c-.239.239-.495.239-.657.076l-1.297-1.296a.407.407 0 0 1 0-.58l.751-.752a.424.424 0 0 0 .06-.512 6.823 6.823 0 0 1-.726-1.74.41.41 0 0 0-.4-.316h-.956c-.333 0-.52-.188-.52-.41V9.207c0-.23.187-.41.52-.41h.955a.42.42 0 0 0 .401-.315 6.532 6.532 0 0 1 .726-1.74.414.414 0 0 0-.06-.513l-.75-.75a.407.407 0 0 1 0-.58L13.142 3.6c.162-.162.427-.162.657.077l.674.674a.424.424 0 0 0 .512.06 6.82 6.82 0 0 1 1.741-.726.418.418 0 0 0 .316-.4V2.192c0-.23.188-.41.41-.41h1.834c.23 0 .41.188.41.521v.956c0 .196.136.35.316.4a6.531 6.531 0 0 1 1.74.726.414.414 0 0 0 .512-.06l.751-.75a.407.407 0 0 1 .58 0l1.298 1.297c.162.162.162.426-.077.657l-.674.674a.424.424 0 0 0-.06.512c.316.537.563 1.118.725 1.74a.418.418 0 0 0 .401.316h1.058c.23 0 .41.188.41.41v1.843Z"/>
            <path stroke="currentColor" fill="none" stroke-linejoin="round" stroke-miterlimit="10" stroke-width="1.2" d="M11.221 28.032c.222-.222.453-.589 1.17-.589h8.627c.648 0 4.232-3.592 4.693-4.104.435-.495 2.39-3.422 2.935-4.694-.34-.46-1.262-.836-2.346-.588-1.033.238-1.647.98-2.347 2.346l-2.688 1.4"/>
            <path stroke="currentColor" fill="none" stroke-linejoin="round" stroke-miterlimit="10" stroke-width="1.2" d="M14.575 23.927h5.274c2.346 0 2.346-2.935 0-2.935h-3.516c-.486 0-1.408-1.17-2.176-1.17h-2.935c-.794 0-1.775.64-2.347 1.17-.879.879-2.432 2.347-2.432 2.347"/>
            <path stroke="currentColor" fill="none" stroke-linejoin="round" stroke-miterlimit="10" stroke-width="1.2" d="m5.358 22.17-2.347 2.346 6.45 6.45 2.348-2.347-6.45-6.45Z"/>
        </symbol>
        <symbol id="icon-chat" viewBox="0 0 24 24">
            <path d="m3.91 19.62.282-.642-.282.641Zm-2.55-2.708.652-.254-.652.254Zm14.21 0-.651-.254.652.254Zm-2.55 2.706-.282-.64.281.64Zm0-14.238-.282.64.281-.64Zm2.55 2.706-.651.254.652-.254ZM3.91 5.38l.282.64-.282-.64ZM1.36 8.087l.652.254-.652-.254Zm19.18 8.543-.233.66.234-.66Zm-1.17-.496.393-.579-.394.579Zm-1.012-1.487.681-.163-.68.163Zm4.548 1.409.656.245-.656-.245Zm-1.167.892.041.699-.041-.7Zm-1.198-8.58.233.66-.233-.66Zm1.198-.318.041-.699-.041.7Zm1.167.892.656-.245-.656.245Zm-3.537-.078.394.579-.394-.579Zm-1.01 1.487.68.163-.68-.163ZM8.07 5.7h.786V4.3H8.07v1.4Zm.786 13.6H8.07v1.4h.786v-1.4Zm-.786 0c-1.108 0-1.902 0-2.528-.046-.62-.045-1.021-.13-1.351-.276l-.563 1.282c.536.236 1.117.34 1.812.39.689.05 1.542.05 2.63.05v-1.4ZM.3 12.5c0 1.156 0 2.056.046 2.78.047.731.144 1.333.36 1.888l1.305-.51c-.142-.363-.225-.803-.268-1.467C1.7 14.52 1.7 13.674 1.7 12.5H.3Zm3.892 6.479c-.978-.43-1.767-1.26-2.181-2.32l-1.304.51c.543 1.389 1.589 2.506 2.922 3.091l.563-1.282ZM15.229 12.5c0 1.174 0 2.021-.044 2.69-.043.665-.125 1.105-.267 1.469l1.304.51c.216-.556.313-1.158.36-1.888.047-.725.047-1.625.047-2.781h-1.4Zm-6.372 8.2c1.088 0 1.942 0 2.63-.05.696-.05 1.276-.154 1.813-.39l-.563-1.282c-.33.145-.732.231-1.35.276-.627.046-1.421.046-2.53.046v1.4Zm6.06-4.041c-.413 1.06-1.203 1.89-2.18 2.32l.563 1.281c1.333-.585 2.379-1.702 2.922-3.092l-1.304-.51ZM8.858 5.7c1.109 0 1.903 0 2.53.046.618.045 1.02.13 1.35.275L13.3 4.74c-.537-.236-1.117-.34-1.813-.39-.688-.05-1.542-.05-2.63-.05v1.4Zm7.772 6.8c0-1.156 0-2.056-.047-2.78-.047-.731-.143-1.333-.36-1.888l-1.304.51c.142.363.224.803.267 1.467.043.67.044 1.517.044 2.691h1.4Zm-3.892-6.479c.977.43 1.767 1.26 2.18 2.32l1.305-.51c-.543-1.389-1.59-2.506-2.922-3.091l-.563 1.281ZM8.07 4.3c-1.088 0-1.941 0-2.63.05-.695.05-1.276.154-1.812.39l.563 1.281c.33-.144.731-.23 1.35-.275C6.17 5.7 6.964 5.7 8.072 5.7V4.3ZM1.7 12.5c0-1.174 0-2.021.043-2.69.043-.665.126-1.105.268-1.469l-1.304-.51C.49 8.388.393 8.99.347 9.72.3 10.444.3 11.344.3 12.5h1.4Zm1.929-7.76c-1.333.585-2.38 1.702-2.922 3.092l1.304.51c.414-1.061 1.203-1.891 2.18-2.32L3.63 4.74ZM22.3 10.25v4.5h1.4v-4.5h-1.4Zm-3.314 3.063v-1.626h-1.4v1.626h1.4Zm1.788 2.657c-.653-.23-.856-.308-1.01-.414l-.789 1.158c.341.232.754.372 1.332.576l.467-1.32Zm-3.188-2.657c0 .65-.005 1.095.092 1.498l1.361-.326c-.049-.204-.053-.448-.053-1.172h-1.4Zm2.177 2.243a1.799 1.799 0 0 1-.724-1.071l-1.361.326a3.198 3.198 0 0 0 1.297 1.902l.788-1.157Zm2.537-.806c0 .36 0 .6-.01.783-.011.182-.03.25-.04.279l1.312.49a2.32 2.32 0 0 0 .125-.69c.013-.231.013-.518.013-.862h-1.4Zm-1.993 2.54c.306.109.566.201.782.262.216.062.447.11.691.096l-.083-1.398a.804.804 0 0 1-.226-.045 13.27 13.27 0 0 1-.697-.234l-.467 1.32Zm1.943-1.478a.646.646 0 0 1-.553.438l.083 1.398c.815-.049 1.5-.591 1.782-1.346l-1.312-.49ZM20.774 9.03c.323-.115.534-.19.697-.235a.803.803 0 0 1 .226-.045l.083-1.398a2.072 2.072 0 0 0-.691.096 13.29 13.29 0 0 0-.782.262l.467 1.32Zm2.926 1.22c0-.344 0-.63-.013-.863a2.32 2.32 0 0 0-.125-.689l-1.312.49c.01.028.029.097.04.279.01.183.01.423.01.783h1.4Zm-2.003-1.5a.644.644 0 0 1 .553.438l1.312-.49c-.283-.755-.967-1.297-1.782-1.346l-.083 1.398Zm-1.39-1.04c-.578.204-.99.344-1.332.577l.788 1.157c.155-.106.358-.184 1.01-.415l-.466-1.32Zm-1.321 3.977c0-.724.004-.968.053-1.172l-1.361-.326c-.097.403-.092.847-.092 1.498h1.4Zm-.011-3.4a3.198 3.198 0 0 0-1.297 1.902l1.361.326c.108-.451.372-.831.724-1.071l-.788-1.157Z"/>
        </symbol>
        <symbol id="icon-technical" viewBox="0 0 24 24">
            <path d="m4.275 15.645.313-.626-.313.626Zm-1.82-1.788.62-.322-.62.322Zm19.09 0-.62-.322.62.322Zm-1.82 1.788-.313-.626.313.626Zm0-12.2-.313.627.313-.626Zm1.82 1.789-.62.322.62-.322ZM4.276 3.446l.313.626-.313-.626Zm-1.82 1.788.62.322-.62-.322ZM7 20.3a.7.7 0 1 0 0 1.4v-1.4Zm10 1.4a.7.7 0 1 0 0-1.4v1.4Zm-8.333-18h6.666V2.3H8.667v1.4Zm6.666 11.69H8.667v1.4h6.666v-1.4Zm-6.666 0c-1.178 0-2.02 0-2.681-.053-.653-.052-1.066-.152-1.398-.318l-.626 1.252c.56.28 1.175.403 1.912.462.73.058 1.637.058 2.793.058v-1.4ZM1.3 9.546c0 1.134 0 2.027.06 2.745.06.727.185 1.336.473 1.89l1.242-.645c-.166-.322-.268-.723-.32-1.36-.054-.647-.055-1.472-.055-2.63H1.3Zm3.288 5.474a3.43 3.43 0 0 1-1.513-1.484l-1.242.645a4.83 4.83 0 0 0 2.129 2.091l.626-1.252ZM21.3 9.545c0 1.158 0 1.983-.054 2.63-.053.637-.155 1.038-.322 1.36l1.243.645c.288-.554.413-1.163.474-1.89.06-.717.059-1.61.059-2.745h-1.4Zm-5.967 7.246c1.156 0 2.064 0 2.793-.058.737-.06 1.352-.182 1.912-.462l-.626-1.252c-.332.166-.745.266-1.398.318-.66.053-1.502.054-2.68.054v1.4Zm5.591-3.256a3.43 3.43 0 0 1-1.512 1.484l.626 1.252a4.83 4.83 0 0 0 2.13-2.091l-1.244-.645ZM15.334 3.7c1.178 0 2.02 0 2.68.053.652.053 1.066.153 1.398.319l.626-1.252c-.56-.28-1.175-.403-1.912-.462-.73-.059-1.637-.058-2.793-.058v1.4ZM22.7 9.545c0-1.133 0-2.027-.06-2.744-.06-.727-.185-1.336-.473-1.89l-1.243.645c.167.321.269.723.322 1.36.053.647.054 1.472.054 2.63h1.4Zm-3.288-5.473a3.43 3.43 0 0 1 1.512 1.484l1.243-.645a4.83 4.83 0 0 0-2.129-2.091l-.626 1.252ZM8.667 2.3c-1.156 0-2.064 0-2.793.058-.737.06-1.353.182-1.912.462l.626 1.252c.332-.166.745-.266 1.398-.319.66-.052 1.503-.053 2.68-.053V2.3ZM2.7 9.545c0-1.157 0-1.982.054-2.628.053-.638.155-1.04.321-1.36L1.833 4.91c-.288.554-.413 1.163-.474 1.89-.06.717-.059 1.61-.059 2.744h1.4ZM3.962 2.82a4.83 4.83 0 0 0-2.13 2.091l1.243.645a3.43 3.43 0 0 1 1.513-1.484L3.962 2.82Zm5.681 13.154-.833 4.909 1.38.234.834-4.909-1.38-.234Zm3.333.234.834 4.91 1.38-.235-.833-4.91-1.38.235ZM7 21.7h2.5v-1.4H7v1.4Zm2.5 0h5v-1.4h-5v1.4Zm5 0H17v-1.4h-2.5v1.4Z"/>
        </symbol>
        <symbol id="icon-search" viewBox="0 0 24 24">
			<path fill-rule="evenodd" clip-rule="evenodd" d="M11.182 3.7C7.045 3.7 3.7 7.03 3.7 11.13c0 4.099 3.345 7.43 7.482 7.43 2.04 0 3.889-.811 5.239-2.126a7.38 7.38 0 0 0 2.243-5.304c0-4.1-3.346-7.43-7.482-7.43ZM2.3 11.13c0-4.881 3.98-8.83 8.882-8.83 4.9 0 8.882 3.949 8.882 8.83a8.767 8.767 0 0 1-2.177 5.79l3.606 3.583a.7.7 0 0 1-.986.994l-3.622-3.599a8.88 8.88 0 0 1-5.703 2.061C6.28 19.96 2.3 16.01 2.3 11.13Z" />
		</symbol>
        <symbol id="icon-globe" viewBox="0 0 24 24">
			<path fill-rule="evenodd" clip-rule="evenodd" d="M7.463 5.048c.098.691.725 1.263 1.537 1.263h.375c1.393 0 2.575 1.087 2.575 2.493s-1.182 2.494-2.575 2.494h-.75c-.221 0-.52.204-.793.68A2.966 2.966 0 0 1 5.25 13.45H3.826a8.303 8.303 0 0 0 12.724 5.493v-.193A1.55 1.55 0 0 0 15 17.2h-.375a2.575 2.575 0 0 1 0-5.15h.75c.098 0 .217-.04.365-.166a1.99 1.99 0 0 0 .421-.549A2.95 2.95 0 0 1 18.75 9.8h1.256A8.304 8.304 0 0 0 7.463 5.048ZM20.262 11.2H18.75a1.55 1.55 0 0 0-1.361.807c-.175.32-.418.666-.737.94-.322.276-.753.503-1.277.503h-.75a1.175 1.175 0 0 0 0 2.35H15c1.337 0 2.466.89 2.828 2.11a8.274 8.274 0 0 0 2.434-6.71ZM3.7 12.05h1.55c.601 0 1.11-.319 1.367-.768.325-.568.986-1.384 2.008-1.384h.75c.679 0 1.175-.519 1.175-1.094 0-.575-.496-1.093-1.175-1.093H9c-1.2 0-2.26-.702-2.714-1.73A8.275 8.275 0 0 0 3.7 12.05Zm2.641-7.93A9.66 9.66 0 0 1 12 2.3c4.807 0 8.796 3.496 9.566 8.084.088.526.134 1.066.134 1.616a9.689 9.689 0 0 1-4.041 7.88A9.66 9.66 0 0 1 12 21.7c-5.085 0-9.256-3.913-9.667-8.892A9.688 9.688 0 0 1 6.341 4.12Z" />
		</symbol>
        <symbol id="icon-study" viewBox="0 0 24 24">
			<path fill-rule="evenodd" clip-rule="evenodd" d="M10.868 2.505a3.228 3.228 0 0 1 2.264 0l8.523 3.196c2.828 1.06 2.687 5.031-.198 5.903l-1.327.401v4.15c0 3.076-2.546 5.545-5.653 5.545H9.523c-3.108 0-5.653-2.468-5.653-5.546v-4.149l-1.327-.401a3.3 3.3 0 0 1-.843-.388v2.515a.7.7 0 1 1-1.4 0V8.608a3.078 3.078 0 0 1 2.045-2.907l8.523-3.196ZM1.7 8.621v-.01c.002-.66.366-1.31 1.136-1.599l8.523-3.196c.413-.155.87-.155 1.282 0l8.523 3.196c1.566.587 1.498 2.765-.112 3.252l-8.523 2.576a1.83 1.83 0 0 1-1.058 0l-8.523-2.576c-.834-.252-1.246-.941-1.248-1.643Zm3.57 3.807v3.726c0 2.275 1.89 4.146 4.253 4.146h4.954c2.363 0 4.253-1.87 4.253-4.146v-3.726l-5.796 1.752a3.23 3.23 0 0 1-1.868 0L5.27 12.428Z" />
		</symbol>
        <symbol id="icon-download" viewBox="0 0 24 24">
			<path fill-rule="evenodd" clip-rule="evenodd" d="M12 2.3a.7.7 0 0 1 .7.7v10.604l2.143-2.103a.7.7 0 0 1 .98.998l-3.333 3.273a.7.7 0 0 1-.98 0L8.176 12.5a.7.7 0 1 1 .981-.998l2.143 2.104V3a.7.7 0 0 1 .7-.7ZM2 10.482a.7.7 0 0 1 .7.7v1.963c0 1.387 0 2.384.066 3.167.064.774.188 1.276.4 1.685a4.256 4.256 0 0 0 1.877 1.842c.421.21.938.333 1.729.396.8.064 1.817.065 3.228.065h4c1.412 0 2.429 0 3.228-.065.791-.063 1.308-.186 1.729-.396a4.256 4.256 0 0 0 1.877-1.842c.212-.409.336-.911.4-1.685.065-.783.066-1.78.066-3.167v-1.963a.7.7 0 1 1 1.4 0v1.995c0 1.348 0 2.403-.07 3.25-.072.864-.22 1.574-.554 2.215a5.655 5.655 0 0 1-2.493 2.449c-.649.325-1.367.47-2.243.54-.862.069-1.935.069-3.31.069H9.97c-1.375 0-2.448 0-3.31-.07-.876-.07-1.594-.214-2.243-.539a5.656 5.656 0 0 1-2.493-2.449c-.333-.641-.482-1.351-.553-2.214-.071-.848-.071-1.903-.071-3.25v-1.996a.7.7 0 0 1 .7-.7Z" />
		</symbol>
        <symbol id="icon-loading" viewBox="0 0 24 24">
			<path opacity=".5" d="M6.55 18.537a1.92 1.92 0 1 0 0-3.839 1.92 1.92 0 0 0 0 3.84Z" /><path opacity=".8" d="M18.9 16.835a1.666 1.666 0 1 0 0-3.332 1.666 1.666 0 0 0 0 3.332Z" /><path d="M17.378 8.433a1.376 1.376 0 1 0 0-2.753 1.376 1.376 0 0 0 0 2.753Z" /><path opacity=".4" d="M5.037 13.852c1.125 0 2.037-.89 2.037-1.988 0-1.097-.912-1.987-2.037-1.987S3 10.767 3 11.864c0 1.098.912 1.988 2.037 1.988Z" /><path opacity=".6" d="M10.889 21c1.023 0 1.852-.808 1.852-1.805 0-.996-.83-1.804-1.852-1.804-1.023 0-1.852.808-1.852 1.805 0 .996.83 1.804 1.852 1.804Z" /><path opacity=".7" d="M15.648 20.21c.972 0 1.76-.768 1.76-1.714s-.788-1.713-1.76-1.713c-.971 0-1.76.767-1.76 1.713 0 .947.789 1.713 1.76 1.713Z" /><path opacity=".3" d="M7.24 9.236c1.177 0 2.13-.93 2.13-2.078 0-1.149-.953-2.08-2.13-2.08-1.175 0-2.129.931-2.129 2.08 0 1.148.954 2.078 2.13 2.078Z" /><path opacity=".9" d="M19.426 12.385c.87 0 1.574-.691 1.574-1.545 0-.853-.705-1.545-1.574-1.545-.87 0-1.574.692-1.574 1.545 0 .854.705 1.545 1.574 1.545Z" /><path opacity=".2" d="M12.525 7.49a2.245 2.245 0 1 0 0-4.49 2.245 2.245 0 0 0 0 4.49Z" />
		</symbol>
        <symbol id="icon-full-logo" viewBox="0 0 144 48">
			<path d="M19.038 21.514a2.411 2.411 0 0 0-2.229 1.46 2.335 2.335 0 0 0 .522 2.58c.69.678 1.727.88 2.628.513a2.367 2.367 0 0 0 1.487-2.189c-.002-1.305-1.079-2.362-2.408-2.364Z" fill="#184C71"/><path d="M13.279 21.988c-.78 0-1.483.462-1.781 1.169a1.867 1.867 0 0 0 .42 2.063 1.953 1.953 0 0 0 2.1.408 1.892 1.892 0 0 0 1.188-1.75c0-.502-.203-.983-.565-1.337a1.942 1.942 0 0 0-1.362-.553Z" fill="#C11F5A"/><path d="M7.377 22.344a1.566 1.566 0 0 0-1.449.947 1.517 1.517 0 0 0 .34 1.677c.447.44 1.121.571 1.706.332.586-.238.967-.8.966-1.422a1.52 1.52 0 0 0-.458-1.085 1.577 1.577 0 0 0-1.105-.45Z" fill="#DE5126"/><path d="M1.487 22.696a1.207 1.207 0 0 0-1.117.73 1.17 1.17 0 0 0 .26 1.292c.346.34.866.44 1.317.257.451-.184.745-.617.744-1.097 0-.653-.54-1.182-1.204-1.182Z" fill="#F38420"/><path d="M17.629 17.141c-.612-.6-1.603-.599-2.214.001a1.518 1.518 0 0 0 0 2.174c.611.6 1.602.6 2.214 0 .294-.288.459-.679.459-1.087 0-.408-.165-.8-.46-1.088ZM16.5 27.923c-.866 0-1.566.689-1.566 1.538 0 .848.7 1.537 1.565 1.537s1.566-.689 1.566-1.538c0-.849-.701-1.537-1.566-1.537Z" fill="#184C71"/><path d="M32.55 12.985c0-.956-.587-1.818-1.487-2.184a2.44 2.44 0 0 0-2.623.512 2.333 2.333 0 0 0-.522 2.577 2.408 2.408 0 0 0 2.224 1.459c.639 0 1.252-.248 1.703-.691a2.34 2.34 0 0 0 .705-1.673ZM24.02 14.497a2.44 2.44 0 0 0-2.627-.521 2.364 2.364 0 0 0-1.49 2.186c0 .958.588 1.82 1.49 2.186a2.44 2.44 0 0 0 2.626-.521 2.334 2.334 0 0 0 0-3.33ZM20.65 29.938a2.333 2.333 0 0 0-.531 2.578 2.408 2.408 0 0 0 2.226 1.464c.976 0 1.855-.578 2.226-1.464a2.333 2.333 0 0 0-.53-2.578 2.44 2.44 0 0 0-3.391 0ZM27.734 34.823c0 1.306 1.078 2.364 2.408 2.364 1.33 0 2.408-1.058 2.408-2.364 0-1.305-1.078-2.364-2.408-2.364-1.33 0-2.408 1.059-2.408 2.364ZM28.21 40.49c0 .765.47 1.455 1.19 1.748.72.293 1.55.13 2.1-.41a1.867 1.867 0 0 0 .419-2.063 1.928 1.928 0 0 0-1.78-1.168c-1.065 0-1.928.847-1.928 1.892ZM28.574 46.272c0 .622.38 1.183.965 1.422a1.586 1.586 0 0 0 1.707-.332c.448-.44.582-1.1.34-1.675a1.566 1.566 0 0 0-1.446-.95c-.864 0-1.564.687-1.566 1.535ZM32.065 7.32c0-1.046-.863-1.893-1.927-1.893s-1.927.847-1.927 1.893c0 1.045.863 1.892 1.927 1.892.511 0 1.002-.199 1.364-.554.361-.355.564-.836.563-1.338ZM26.084 10.413c0-.849-.7-1.537-1.565-1.537s-1.566.688-1.566 1.537.701 1.537 1.566 1.537c.864 0 1.565-.688 1.565-1.537ZM31.705 1.537c0-.849-.7-1.537-1.565-1.537s-1.566.688-1.566 1.537.701 1.537 1.566 1.537c.864 0 1.565-.688 1.565-1.537ZM19.591 10.82a1.953 1.953 0 0 0-2.1-.41c-.72.292-1.19.982-1.19 1.748s.47 1.456 1.19 1.748c.72.293 1.55.13 2.1-.41a1.87 1.87 0 0 0 0-2.675ZM15.165 6.989a1.587 1.587 0 0 0-1.706-.334 1.537 1.537 0 0 0-.967 1.42c0 .622.382 1.183.967 1.42a1.587 1.587 0 0 0 1.706-.334c.295-.287.46-.678.46-1.086 0-.408-.165-.799-.46-1.086ZM16.911 34.277a1.868 1.868 0 0 0 .001 2.675 1.953 1.953 0 0 0 2.725 0 1.868 1.868 0 0 0 .001-2.675 1.943 1.943 0 0 0-1.363-.556c-.512 0-1.002.2-1.364.556ZM12.998 38.619c-.448.44-.582 1.1-.34 1.675.242.575.813.95 1.447.95.633 0 1.204-.375 1.446-.95a1.517 1.517 0 0 0-.34-1.675c-.611-.6-1.601-.6-2.213 0ZM23.381 36.283c-.448.44-.582 1.1-.34 1.675.242.575.813.95 1.446.95.634 0 1.205-.375 1.447-.95a1.517 1.517 0 0 0-.34-1.675 1.575 1.575 0 0 0-1.107-.452c-.415 0-.813.163-1.106.452Z" fill="#728692"/><path d="M25.577 28.578a6.198 6.198 0 0 1-1.91-4.667 6.187 6.187 0 0 1 1.922-4.67 6.563 6.563 0 0 1 4.708-1.842 6.808 6.808 0 0 1 3.76 1.06 5.82 5.82 0 0 1 2.349 2.972h-3.14c-.582-1.11-1.572-1.665-2.97-1.665a3.823 3.823 0 0 0-2.87 1.14c-.735.76-1.103 1.77-1.105 3.027-.002 1.258.366 2.26 1.104 3.008a3.632 3.632 0 0 0 2.713 1.14c1.072 0 1.914-.258 2.526-.774a3.38 3.38 0 0 0 1.13-2.089h-4.297v-1.942h7.112v1.942a6.1 6.1 0 0 1-2.08 3.638c-1.164 1.041-2.628 1.56-4.39 1.559a6.35 6.35 0 0 1-4.562-1.837ZM46.848 23.887c-.392.439-.895.769-1.458.957a6.385 6.385 0 0 1-2.238.355h-2.156v5.072h-2.617V17.54h4.773c1.497 0 2.651.37 3.461 1.11a3.401 3.401 0 0 1 1.218 2.597c.01.967-.34 1.905-.983 2.639Zm-5.852-.655h2.156a2.09 2.09 0 0 0 1.494-.502 2.033 2.033 0 0 0 0-2.717 2.078 2.078 0 0 0-1.503-.502h-2.156l.009 3.72ZM51.347 21.006c-.016.417.123.825.39 1.149.267.308.613.54 1.003.674.445.158.901.286 1.364.383.502.11 1.003.234 1.504.375.474.133.932.318 1.365.552.42.23.768.571 1.003.985.275.496.41 1.055.39 1.62a3.438 3.438 0 0 1-1.153 2.572c-.767.729-1.803 1.099-3.108 1.11-1.309 0-2.368-.297-3.188-.885a2.805 2.805 0 0 1-1.224-2.398h1.8c.032.537.284 1.037.698 1.388.413.353 1.03.53 1.848.53a2.9 2.9 0 0 0 1.95-.622c.452-.35.718-.883.724-1.448a1.877 1.877 0 0 0-.39-1.276 2.313 2.313 0 0 0-1.003-.666 9.893 9.893 0 0 0-1.365-.375c-.5-.102-1.003-.227-1.504-.375a6.547 6.547 0 0 1-1.364-.554 2.622 2.622 0 0 1-1.004-1.005 3.217 3.217 0 0 1-.39-1.65 3.204 3.204 0 0 1 1.16-2.578c.773-.651 1.783-.977 3.028-.977s2.236.278 2.97.832a3.288 3.288 0 0 1 1.275 2.345h-1.877a1.859 1.859 0 0 0-.715-1.276 2.638 2.638 0 0 0-1.729-.53 2.794 2.794 0 0 0-1.772.516c-.473.39-.728.979-.686 1.584ZM64.215 28.92h1.393v1.35h-1.71c-1.768 0-2.653-.857-2.653-2.572v-6.104h-1.32v-1.34h1.32V17.78h1.696v2.475h2.636v1.351h-2.636v6.104c-.035.34.066.681.282.95.284.209.64.302.992.26ZM69.155 20.255v1.698c.606-1.24 1.642-1.86 3.108-1.862v1.734h-.447c-.866 0-1.525.221-1.978.663-.452.444-.678 1.215-.678 2.309v5.474h-1.695V20.254h1.69ZM75.026 28.967c-.927-.98-1.391-2.233-1.393-3.757-.002-1.524.46-2.758 1.384-3.701a4.663 4.663 0 0 1 3.482-1.416 4.23 4.23 0 0 1 2.26.603c.63.38 1.14.922 1.478 1.567v-2.009h1.696v10.017h-1.696v-2.045a4 4 0 0 1-1.478 1.595 4.188 4.188 0 0 1-2.26.613 4.598 4.598 0 0 1-3.473-1.467Zm6.217-.977a3.698 3.698 0 0 0 1.011-2.716 3.703 3.703 0 0 0-1.011-2.72 3.307 3.307 0 0 0-2.433-1.02 3.363 3.363 0 0 0-2.433.985c-.675.658-1.013 1.551-1.015 2.68a3.8 3.8 0 0 0 1.023 2.755c.623.667 1.5 1.05 2.42 1.056a3.347 3.347 0 0 0 2.438-1.02ZM90.086 28.92h1.394v1.35h-1.71c-1.769 0-2.653-.857-2.653-2.572v-6.104h-1.32v-1.34h1.32V17.78h1.695v2.475h2.636v1.351h-2.636v6.104c-.035.34.067.681.282.95.285.209.64.302.992.26ZM97.607 30.434a4.735 4.735 0 0 1-3.566-1.423c-.915-.949-1.373-2.201-1.373-3.757 0-1.555.464-2.804 1.393-3.745a4.85 4.85 0 0 1 3.611-1.415c1.481 0 2.67.446 3.566 1.34a4.621 4.621 0 0 1 1.337 3.42c.001.33-.023.658-.073.983h-8.108c0 .879.341 1.725.956 2.364.6.582 1.417.895 2.26.866.618.02 1.229-.14 1.755-.458a2.71 2.71 0 0 0 1.048-1.202h1.82a4.594 4.594 0 0 1-1.661 2.17 4.91 4.91 0 0 1-2.965.857Zm2.284-8.107a3.371 3.371 0 0 0-4.493-.017 3.355 3.355 0 0 0-.986 2.326h6.408a3.103 3.103 0 0 0-.93-2.309ZM105.401 28.967c-.927-.98-1.391-2.233-1.393-3.757-.002-1.524.462-2.758 1.393-3.701a4.663 4.663 0 0 1 3.481-1.416 4.23 4.23 0 0 1 2.275.603c.629.38 1.14.922 1.478 1.567v-2.009h1.695V30.52a4.454 4.454 0 0 1-1.353 3.363 4.765 4.765 0 0 1-3.436 1.304c-1.389 0-2.537-.316-3.445-.949a3.435 3.435 0 0 1-1.551-2.48h1.653c.18.597.584 1.106 1.13 1.423a4.045 4.045 0 0 0 2.21.555 3.053 3.053 0 0 0 2.201-.849c.588-.555.882-1.357.882-2.378v-2.3a4.005 4.005 0 0 1-1.478 1.596 4.191 4.191 0 0 1-2.275.613 4.597 4.597 0 0 1-3.467-1.451Zm6.217-.977a3.7 3.7 0 0 0 1.011-2.716 3.702 3.702 0 0 0-1.011-2.72 3.308 3.308 0 0 0-2.433-1.02 3.362 3.362 0 0 0-2.433.985c-.677.658-1.015 1.551-1.015 2.68a3.801 3.801 0 0 0 1.023 2.755c.623.667 1.5 1.05 2.421 1.056a3.348 3.348 0 0 0 2.437-1.02ZM118.798 18.326c-.215.215-.51.333-.817.327a1.087 1.087 0 0 1-.808-.327 1.1 1.1 0 0 1-.325-.802 1.098 1.098 0 0 1 .333-.805 1.163 1.163 0 0 1 1.617 0c.444.447.444 1.16 0 1.607Zm-1.673 11.944V20.255h1.695V30.27h-1.695ZM125.872 30.434a4.737 4.737 0 0 1-3.566-1.423c-.91-.95-1.365-2.203-1.365-3.763 0-1.559.465-2.808 1.394-3.745a4.849 4.849 0 0 1 3.611-1.415c1.481 0 2.669.446 3.566 1.34a4.628 4.628 0 0 1 1.345 3.42c.001.33-.023.658-.073.983h-8.125a3.403 3.403 0 0 0 .956 2.364 3.088 3.088 0 0 0 2.26.866c.618.02 1.229-.14 1.755-.458a2.71 2.71 0 0 0 1.048-1.202h1.82a4.594 4.594 0 0 1-1.661 2.17 4.91 4.91 0 0 1-2.965.863Zm2.284-8.107a3.371 3.371 0 0 0-4.493-.017 3.356 3.356 0 0 0-.987 2.325h6.409a3.09 3.09 0 0 0-.929-2.308ZM132.576 23.084a2.648 2.648 0 0 1 1.082-2.125 4.265 4.265 0 0 1 2.77-.866c1.13 0 2.018.283 2.664.85a3.216 3.216 0 0 1 1.057 2.324h-1.743c0-.505-.203-.991-.565-1.35a2.098 2.098 0 0 0-1.495-.511 2.325 2.325 0 0 0-1.506.447 1.422 1.422 0 0 0-.546 1.148c-.013.448.226.866.622 1.088.463.272.972.46 1.503.555.588.116 1.177.25 1.766.402a3.2 3.2 0 0 1 1.504.855c.44.492.663 1.135.621 1.79a2.36 2.36 0 0 1-1.068 1.941 4.546 4.546 0 0 1-2.775.794c-1.141 0-2.055-.278-2.741-.832a3.09 3.09 0 0 1-1.13-2.315h1.746c.003.51.222.996.605 1.34.43.353.978.536 1.537.514.553.03 1.1-.116 1.56-.419.334-.24.54-.614.564-1.02.023-.405-.139-.8-.443-1.075a2.487 2.487 0 0 0-1.116-.538 48.879 48.879 0 0 1-1.455-.347 19.955 19.955 0 0 1-1.461-.427 2.37 2.37 0 0 1-1.113-.794 2.231 2.231 0 0 1-.444-1.429Z" fill="#fff"/><path d="M141.348 20.81c.53-.45 1.317-.45 1.848 0 .471.498.471 1.269 0 1.767a1.412 1.412 0 0 1-1.848 0 1.276 1.276 0 0 1 0-1.768Zm.141 1.637c.306.319.781.419 1.193.25a1.05 1.05 0 0 0 .658-1.008 1 1 0 0 0-.283-.752 1.22 1.22 0 0 0-1.562 0 1 1 0 0 0-.283.752c-.018.28.082.557.277.763v-.006Zm.26-1.518h.599a.59.59 0 0 1 .41.133.432.432 0 0 1 .065.574.437.437 0 0 1-.26.172l.367.608h-.429l-.342-.58h-.04v.58h-.37v-1.487Zm.37.277v.358h.229a.187.187 0 0 0 .166-.113.18.18 0 0 0-.036-.195.17.17 0 0 0-.13-.05h-.229Z" fill="#818182"/>
		</symbol>
        <symbol id="icon-instagram" viewBox="0 0 18 18">
            <path d="M6 9a3 3 0 1 1 6 0 3 3 0 0 1-6 0ZM4.38 9a4.621 4.621 0 1 0 9.243 0 4.621 4.621 0 0 0-9.243 0Zm8.346-4.805a1.08 1.08 0 1 0 1.08-1.08 1.08 1.08 0 0 0-1.08 1.08Zm-7.36 12.13c-.878-.04-1.355-.185-1.672-.309a2.797 2.797 0 0 1-1.035-.673 2.777 2.777 0 0 1-.674-1.034c-.123-.317-.27-.794-.31-1.672-.043-.949-.052-1.234-.052-3.637s.01-2.688.053-3.637c.04-.877.187-1.354.31-1.671.163-.42.358-.72.673-1.036.314-.315.614-.51 1.035-.673.317-.123.794-.27 1.671-.31.949-.043 1.234-.052 3.636-.052 2.403 0 2.688.01 3.638.053.877.04 1.353.187 1.671.31.42.162.72.358 1.035.672.316.315.51.615.673 1.036.124.316.27.794.31 1.671.044.95.052 1.234.052 3.637s-.008 2.688-.052 3.637c-.04.878-.187 1.354-.31 1.671-.163.42-.358.72-.673 1.035-.315.315-.615.51-1.035.673-.317.124-.794.27-1.671.31-.95.043-1.234.052-3.638.052-2.403 0-2.687-.009-3.636-.052ZM5.29.056C4.332.098 3.677.25 3.105.473A4.415 4.415 0 0 0 1.511 1.51C1.01 2.01.702 2.513.473 3.105.25 3.677.098 4.33.055 5.289.01 6.25 0 6.556 0 9s.01 2.75.055 3.71c.043.959.195 1.613.418 2.185A4.4 4.4 0 0 0 1.51 16.49c.5.5 1.002.808 1.594 1.038.573.223 1.227.375 2.185.418C6.25 17.99 6.556 18 9 18c2.445 0 2.751-.01 3.711-.055.958-.043 1.612-.195 2.185-.418a4.426 4.426 0 0 0 1.594-1.038c.501-.5.808-1.002 1.038-1.594.223-.572.375-1.226.418-2.184C17.99 11.75 18 11.444 18 9s-.01-2.75-.054-3.71c-.043-.959-.195-1.613-.418-2.185A4.425 4.425 0 0 0 16.49 1.51c-.5-.501-1.002-.809-1.594-1.038C14.323.25 13.67.097 12.712.055 11.752.01 11.445 0 9.002 0 6.556 0 6.25.01 5.29.055Z" /><path d="M6 9a3 3 0 1 1 6 0 3 3 0 0 1-6 0ZM4.38 9a4.621 4.621 0 1 0 9.243 0 4.621 4.621 0 0 0-9.243 0Zm8.346-4.805a1.08 1.08 0 1 0 1.08-1.08 1.08 1.08 0 0 0-1.08 1.08Zm-7.36 12.13c-.878-.04-1.355-.185-1.672-.309a2.797 2.797 0 0 1-1.035-.673 2.777 2.777 0 0 1-.674-1.034c-.123-.317-.27-.794-.31-1.672-.043-.949-.052-1.234-.052-3.637s.01-2.688.053-3.637c.04-.877.187-1.354.31-1.671.163-.42.358-.72.673-1.036.314-.315.614-.51 1.035-.673.317-.123.794-.27 1.671-.31.949-.043 1.234-.052 3.636-.052 2.403 0 2.688.01 3.638.053.877.04 1.353.187 1.671.31.42.162.72.358 1.035.672.316.315.51.615.673 1.036.124.316.27.794.31 1.671.044.95.052 1.234.052 3.637s-.008 2.688-.052 3.637c-.04.878-.187 1.354-.31 1.671-.163.42-.358.72-.673 1.035-.315.315-.615.51-1.035.673-.317.124-.794.27-1.671.31-.95.043-1.234.052-3.638.052-2.403 0-2.687-.009-3.636-.052ZM5.29.056C4.332.098 3.677.25 3.105.473A4.415 4.415 0 0 0 1.511 1.51C1.01 2.01.702 2.513.473 3.105.25 3.677.098 4.33.055 5.289.01 6.25 0 6.556 0 9s.01 2.75.055 3.71c.043.959.195 1.613.418 2.185A4.4 4.4 0 0 0 1.51 16.49c.5.5 1.002.808 1.594 1.038.573.223 1.227.375 2.185.418C6.25 17.99 6.556 18 9 18c2.445 0 2.751-.01 3.711-.055.958-.043 1.612-.195 2.185-.418a4.426 4.426 0 0 0 1.594-1.038c.501-.5.808-1.002 1.038-1.594.223-.572.375-1.226.418-2.184C17.99 11.75 18 11.444 18 9s-.01-2.75-.054-3.71c-.043-.959-.195-1.613-.418-2.185A4.425 4.425 0 0 0 16.49 1.51c-.5-.501-1.002-.809-1.594-1.038C14.323.25 13.67.097 12.712.055 11.752.01 11.445 0 9.002 0 6.556 0 6.25.01 5.29.055Z" />
        </symbol>
        <symbol id="icon-facebook" viewBox="0 0 10 18">
            <path d="m9.321 10.124.526-3.256H6.605V4.752c0-.89.453-1.76 1.9-1.76H10V.219C9.13.084 8.25.01 7.368 0 4.7 0 2.958 1.562 2.958 4.386v2.482H0v3.256h2.958V18h3.647v-7.876h2.716Z" />
        </symbol>
        <symbol id="icon-twitter" viewBox="0 0 22 18">
              <path d="M12.11,7.5L19.12,0h-2.8l-5.41,5.84L6.55,0H.04l7.42,9.8L0,17.84h2.79l5.86-6.39,4.66,6.3h6.49l-7.69-10.26ZM14.47,15.75L4.3,2.18h1.34l10.15,13.56h-1.32Z" />
          </symbol>
        <symbol id="icon-youtube" viewBox="0 0 25 18">
            <path d="M24.302 3.094C24.07 1.856 22.97.956 21.692.675 19.78.281 16.24 0 12.412 0 8.584 0 4.988.281 3.074.675 1.799.956.695 1.8.465 3.094.23 4.5 0 6.469 0 9c0 2.531.23 4.5.52 5.906.235 1.238 1.335 2.138 2.61 2.419 2.031.394 5.511.675 9.34.675 3.83 0 7.31-.281 9.34-.675 1.275-.281 2.376-1.125 2.61-2.419.23-1.406.52-3.432.58-5.906-.118-2.531-.408-4.5-.698-5.906ZM9.28 12.938V5.061L16.357 9 9.28 12.938Z" />
        </symbol>
        <symbol id="icon-linkedin" viewBox="0 0 33 33">
            <path d="M32.324 32.333v-.001h.008V20.718c0-5.681-1.223-10.058-7.865-10.058-3.193 0-5.336 1.752-6.21 3.414h-.093V11.19h-6.298v21.141h6.558V21.864c0-2.757.522-5.422 3.936-5.422 3.363 0 3.413 3.145 3.413 5.598v10.293h6.551zM1.189 11.192h6.566v21.141H1.189V11.192zM4.47.667A3.804 3.804 0 0 0 .666 4.469c0 2.1 1.703 3.839 3.802 3.839 2.1 0 3.803-1.74 3.803-3.839A3.805 3.805 0 0 0 4.469.667z" />
        </symbol>

        <symbol id="icon-video" viewBox="0 0 24 24">
            <path d="M3.91021 19.6194L4.19176 18.9785L3.91021 19.6194ZM1.35885 16.9134L2.01089 16.6588L1.35885 16.9134ZM15.5697 16.9134L14.9177 16.6588L15.5697 16.9134ZM13.0184 19.6194L12.7368 18.9785L13.0184 19.6194ZM13.0184 5.3806L12.7368 6.02148L13.0184 5.3806ZM15.5697 8.08658L14.9177 8.34123L15.5697 8.08658ZM3.91021 5.3806L4.19176 6.02148L3.91021 5.3806ZM1.35885 8.08658L2.01089 8.34123L1.35885 8.08658ZM20.5405 16.6305L20.3072 17.2904L20.5405 16.6305ZM19.3691 16.135L19.7631 15.5564L19.3691 16.135ZM18.3585 14.6479L19.0392 14.4846L18.3585 14.6479ZM22.9059 16.0567L23.5616 16.3018L22.9059 16.0567ZM21.7387 16.9489L21.7801 17.6477L21.7387 16.9489ZM20.5405 8.36953L20.7738 9.0295L20.5405 8.36953ZM21.7387 8.05106L21.7801 7.35228L21.7387 8.05106ZM22.9059 8.94331L23.5616 8.69816L22.9059 8.94331ZM19.3691 8.86504L19.7631 9.44357L19.3691 8.86504ZM18.3585 10.3521L19.0392 10.5154L18.3585 10.3521ZM8.07143 5.7H8.85714V4.3H8.07143V5.7ZM8.85714 19.3H8.07143V20.7H8.85714V19.3ZM8.07143 19.3C6.96298 19.3 6.16882 19.2996 5.5425 19.2543C4.92333 19.2094 4.52151 19.1234 4.19176 18.9785L3.62866 20.2603C4.16526 20.496 4.74576 20.6003 5.44146 20.6506C6.13001 20.7004 6.98329 20.7 8.07143 20.7V19.3ZM0.3 12.5C0.3 13.6558 0.299663 14.5557 0.346301 15.2807C0.393295 16.0112 0.490072 16.6131 0.706815 17.1681L2.01089 16.6588C1.86878 16.2949 1.78613 15.8549 1.74341 15.1908C1.70034 14.5212 1.7 13.6739 1.7 12.5H0.3ZM4.19176 18.9785C3.21428 18.5491 2.42509 17.7193 2.01089 16.6588L0.706815 17.1681C1.24956 18.5578 2.29587 19.6748 3.62866 20.2603L4.19176 18.9785ZM15.2286 12.5C15.2286 13.6739 15.2282 14.5212 15.1852 15.1908C15.1424 15.8549 15.0598 16.2949 14.9177 16.6588L16.2218 17.1681C16.4385 16.6131 16.5353 16.0112 16.5823 15.2807C16.6289 14.5557 16.6286 13.6558 16.6286 12.5H15.2286ZM8.85714 20.7C9.94528 20.7 10.7986 20.7004 11.4871 20.6506C12.1828 20.6003 12.7633 20.496 13.2999 20.2603L12.7368 18.9785C12.4071 19.1234 12.0052 19.2094 11.3861 19.2543C10.7597 19.2996 9.96559 19.3 8.85714 19.3V20.7ZM14.9177 16.6588C14.5035 17.7193 13.7143 18.5491 12.7368 18.9785L13.2999 20.2603C14.6327 19.6748 15.679 18.5578 16.2218 17.1681L14.9177 16.6588ZM8.85714 5.7C9.96559 5.7 10.7597 5.70043 11.3861 5.74575C12.0052 5.79056 12.4071 5.87662 12.7368 6.02148L13.2999 4.73972C12.7633 4.50398 12.1828 4.39975 11.4871 4.3494C10.7986 4.29957 9.94528 4.3 8.85714 4.3V5.7ZM16.6286 12.5C16.6286 11.3442 16.6289 10.4443 16.5823 9.71928C16.5353 8.98877 16.4385 8.38691 16.2218 7.83193L14.9177 8.34123C15.0598 8.70511 15.1424 9.1451 15.1852 9.80916C15.2282 10.4788 15.2286 11.3261 15.2286 12.5H16.6286ZM12.7368 6.02148C13.7143 6.45091 14.5035 7.28065 14.9177 8.34123L16.2218 7.83193C15.679 6.44223 14.6327 5.32524 13.2999 4.73972L12.7368 6.02148ZM8.07143 4.3C6.98329 4.3 6.13001 4.29957 5.44146 4.3494C4.74576 4.39975 4.16526 4.50398 3.62866 4.73972L4.19176 6.02148C4.52151 5.87662 4.92333 5.79056 5.5425 5.74575C6.16882 5.70043 6.96298 5.7 8.07143 5.7V4.3ZM1.7 12.5C1.7 11.3261 1.70034 10.4788 1.74341 9.80916C1.78613 9.1451 1.86878 8.70511 2.01089 8.34123L0.706815 7.83193C0.490072 8.38691 0.393295 8.98877 0.346301 9.71928C0.299663 10.4443 0.3 11.3442 0.3 12.5H1.7ZM3.62866 4.73972C2.29587 5.32524 1.24956 6.44223 0.706815 7.83193L2.01089 8.34123C2.42509 7.28065 3.21428 6.45091 4.19176 6.02148L3.62866 4.73972ZM22.3 10.2497V14.7503H23.7V10.2497H22.3ZM18.9857 13.3126V11.6874H17.5857V13.3126H18.9857ZM20.7738 15.9705C20.121 15.7397 19.9184 15.6622 19.7631 15.5564L18.975 16.7135C19.3165 16.9461 19.7292 17.0861 20.3072 17.2904L20.7738 15.9705ZM17.5857 13.3126C17.5857 13.9637 17.581 14.4078 17.6778 14.8112L19.0392 14.4846C18.9904 14.2812 18.9857 14.0374 18.9857 13.3126H17.5857ZM19.7631 15.5564C19.4107 15.3163 19.1475 14.936 19.0392 14.4846L17.6778 14.8112C17.8639 15.5868 18.323 16.2694 18.975 16.7135L19.7631 15.5564ZM22.3 14.7503C22.3 15.1101 22.2997 15.3505 22.2894 15.5332C22.279 15.7152 22.2607 15.7837 22.2503 15.8115L23.5616 16.3018C23.6453 16.0781 23.6739 15.845 23.6871 15.6125C23.7003 15.3808 23.7 15.0937 23.7 14.7503H22.3ZM20.3072 17.2904C20.613 17.3986 20.8733 17.491 21.0887 17.5521C21.305 17.6136 21.5363 17.6622 21.7801 17.6477L21.6974 16.2502C21.6864 16.2508 21.6331 16.2514 21.4712 16.2054C21.3084 16.1591 21.0969 16.0847 20.7738 15.9705L20.3072 17.2904ZM22.2503 15.8115C22.1488 16.0829 21.9224 16.2368 21.6974 16.2502L21.7801 17.6477C22.5946 17.5995 23.2793 17.057 23.5616 16.3018L22.2503 15.8115ZM20.7738 9.0295C21.0969 8.91527 21.3084 8.84086 21.4712 8.79461C21.6331 8.74864 21.6864 8.74918 21.6974 8.74983L21.7801 7.35228C21.5363 7.33784 21.305 7.38644 21.0887 7.44788C20.8733 7.50905 20.613 7.60141 20.3072 7.70956L20.7738 9.0295ZM23.7 10.2497C23.7 9.90626 23.7003 9.61922 23.6871 9.38749C23.6739 9.15503 23.6453 8.92188 23.5616 8.69816L22.2503 9.18845C22.2607 9.21631 22.279 9.28476 22.2894 9.46679C22.2997 9.64955 22.3 9.8899 22.3 10.2497H23.7ZM21.6974 8.74983C21.9224 8.76316 22.1488 8.9171 22.2503 9.18845L23.5616 8.69816C23.2793 7.94305 22.5946 7.40051 21.7801 7.35228L21.6974 8.74983ZM20.3072 7.70956C19.7292 7.91389 19.3165 8.05387 18.975 8.28651L19.7631 9.44357C19.9184 9.33784 20.121 9.26027 20.7738 9.0295L20.3072 7.70956ZM18.9857 11.6874C18.9857 10.9626 18.9904 10.7188 19.0392 10.5154L17.6778 10.1888C17.581 10.5922 17.5857 11.0363 17.5857 11.6874H18.9857ZM18.975 8.28651C18.323 8.73063 17.8639 9.41318 17.6778 10.1888L19.0392 10.5154C19.1475 10.064 19.4107 9.68366 19.7631 9.44357L18.975 8.28651Z" fill="currentColor" stroke="none"/>
        </symbol>


        <symbol id="icon-design" viewBox="0 0 24 24" fill="none">
            <path d="M7.5 6.39584H16.5M3 21.5025C3 22.7965 4.56893 23.479 5.55352 22.6134L10.4948 18.2692C11.3505 17.5169 12.6495 17.5169 13.5052 18.2692L18.4465 22.6134C19.4311 23.479 21 22.7965 21 21.5025V7.27501C21 4.3617 18.5823 2 15.6 2H8.4C5.41766 2 3 4.3617 3 7.27501V21.5025Z" stroke="currentColor" stroke-width="1.4" stroke-linecap="round"/>
        </symbol>

        <symbol id="icon-study-doc" viewBox="0 0 24 24" fill="none">
            <path d="M14.7 1.5H8.4C5.41766 1.5 3 3.85051 3 6.75V17.25C3 20.1495 5.41766 22.5 8.4 22.5H15.6C18.5823 22.5 21 20.1495 21 17.25V7.625M14.7 1.5H15.3816C16.0977 1.5 16.7845 1.77656 17.2908 2.26884L20.2092 5.10616C20.7155 5.59844 21 6.26612 21 6.96231V7.625M14.7 1.5V5C14.7 6.44975 15.9088 7.625 17.4 7.625H21M6.6 10.25H12M6.6 13.75H16.95" stroke="currentColor" stroke-width="1.4" stroke-linecap="round"/>

        </symbol>


        <symbol id="icon-gp-dots-logo" viewBox="0 0 16 4" fill="none">
            <path fill-rule="evenodd" clip-rule="evenodd" d="M13.9988 0C12.8923 0 11.9961 0.895434 11.9961 2.00042C11.9961 3.10499 12.8923 4.00042 13.9988 4C15.1048 4.00042 16.0014 3.10499 16.0014 2.00042C16.0014 0.895434 15.1048 0 13.9988 0Z" fill="currentColor"/>
            <path fill-rule="evenodd" clip-rule="evenodd" d="M7.87376 0.375C6.9746 0.374579 6.24609 1.10254 6.24609 1.99966C6.24609 2.89678 6.9746 3.62474 7.87334 3.62474C8.77207 3.62474 9.50059 2.89678 9.50059 1.99966C9.50059 1.10254 8.77207 0.374579 7.87376 0.375Z" fill="currentColor"/>
            <path fill-rule="evenodd" clip-rule="evenodd" d="M1.75182 0.75C1.05997 0.750421 0.5 1.31007 0.5 2.00058C0.5 2.69067 1.05997 3.2499 1.75182 3.2499C2.44284 3.2499 3.00365 2.69067 3.00365 2.00058C3.00365 1.31007 2.44326 0.750421 1.75182 0.75Z" fill="currentColor"/>
        </symbol>

        <symbol id="icon-gp-dots-logo-color" viewBox="0 0 16 4" fill="none">
            <path fill-rule="evenodd" clip-rule="evenodd" d="M13.9988 0C12.8923 0 11.9961 0.895434 11.9961 2.00042C11.9961 3.10499 12.8923 4.00042 13.9988 4C15.1048 4.00042 16.0014 3.10499 16.0014 2.00042C16.0014 0.895434 15.1048 0 13.9988 0Z" fill="#C01F5A"/>
            <path fill-rule="evenodd" clip-rule="evenodd" d="M7.87376 0.375C6.9746 0.374579 6.24609 1.10254 6.24609 1.99966C6.24609 2.89678 6.9746 3.62474 7.87334 3.62474C8.77207 3.62474 9.50059 2.89678 9.50059 1.99966C9.50059 1.10254 8.77207 0.374579 7.87376 0.375Z" fill="#DD5126"/>
            <path fill-rule="evenodd" clip-rule="evenodd" d="M1.75182 0.75C1.05997 0.750421 0.5 1.31007 0.5 2.00058C0.5 2.69067 1.05997 3.2499 1.75182 3.2499C2.44284 3.2499 3.00365 2.69067 3.00365 2.00058C3.00365 1.31007 2.44326 0.750421 1.75182 0.75Z" fill="#F28420"/>
        </symbol>


        <symbol id="icon-gp-dots-arrow" viewBox="0 0 22 15" fill="none">
            <path fill-rule="evenodd" clip-rule="evenodd" d="M13.4989 5.55273C12.3924 5.55273 11.4961 6.44076 11.4961 7.53661C11.4961 8.63204 12.3924 9.52007 13.4989 9.52007C14.6051 9.52007 15.5018 8.63204 15.5018 7.53661C15.5018 6.44076 14.6051 5.55273 13.4989 5.55273Z" fill="currentColor"/>
            <path fill-rule="evenodd" clip-rule="evenodd" d="M19.4956 5.05859C18.1131 5.05901 16.9922 6.16863 16.9922 7.53781C16.9922 8.90741 18.1131 10.017 19.4956 10.017C20.8782 10.0174 21.9991 8.907 21.9995 7.53781C21.9995 6.16863 20.8782 5.05818 19.4956 5.05859Z" fill="currentColor"/>
            <path fill-rule="evenodd" clip-rule="evenodd" d="M7.37781 5.92578C6.47815 5.92536 5.75 6.6473 5.75 7.537C5.75 8.42712 6.47815 9.14864 7.37739 9.14864C8.2762 9.14864 9.00435 8.42712 9.00435 7.537C9.00435 6.6473 8.2762 5.92536 7.37781 5.92578Z" fill="currentColor"/>
            <path fill-rule="evenodd" clip-rule="evenodd" d="M1.25193 6.29688C0.56002 6.29729 0 6.85231 0 7.53711C0 8.22149 0.56002 8.77609 1.25193 8.77609C1.943 8.77609 2.50386 8.22149 2.50386 7.53711C2.50386 6.85231 1.94342 6.29729 1.25193 6.29688Z" fill="currentColor"/>
            <path fill-rule="evenodd" clip-rule="evenodd" d="M18.0363 0.471974C17.4004 -0.157325 16.3702 -0.157325 15.7347 0.471974C15.0988 1.10169 15.0988 2.12159 15.7347 2.7513C16.3702 3.3806 17.4004 3.3806 18.0363 2.7513C18.6718 2.12159 18.6718 1.10169 18.0363 0.471974Z" fill="currentColor"/>
            <path fill-rule="evenodd" clip-rule="evenodd" d="M16.8618 11.7754C15.9625 11.7754 15.2344 12.4969 15.2344 13.3874C15.2344 14.2776 15.9625 14.9991 16.8618 14.9991C17.7606 14.9991 18.4887 14.2776 18.4887 13.3874C18.4887 12.4969 17.7606 11.7754 16.8618 11.7754Z" fill="currentColor"/>
        </symbol>


        <symbol  id="icon-user-profile" viewBox="0 0 20 21" fill="none">
            <path d="M10 14.1C12.1746 14.1 13.9375 12.2868 13.9375 10.05C13.9375 7.81325 12.1746 6 10 6C7.82538 6 6.0625 7.81325 6.0625 10.05C6.0625 12.2868 7.82538 14.1 10 14.1ZM10 14.1C14.2228 14.1944 15.049 15.7011 15.2107 17.8391M10 14.1C5.77048 14.1 4.94836 15.6691 4.78856 17.8385M15.2107 17.8391C17.504 16.2079 19 13.5286 19 10.5C19 5.52944 14.9706 1.5 10 1.5C5.02944 1.5 1 5.52944 1 10.5C1 13.5283 2.49565 16.2073 4.78856 17.8385M15.2107 17.8391C13.7402 18.885 11.9419 19.5 10 19.5C8.05773 19.5 6.25917 18.8848 4.78856 17.8385" stroke="currentColor" fill="none" stroke-width="1.4"/>
        </symbol>

        <symbol id="icon-quotes_2" viewBox="0 0 57 48" fill='none' xmlns='http://www.w3.org/2000/svg'><path d='M10.959 9.888 0 19.824V48h27.035V20.16H12.6l1.593-3.504c.917-1.872 3.042-6.432 4.78-10.08C20.71 2.976 22.11 0 22.012 0c-.048 0-5.068 4.464-11.054 9.888ZM42.727 7.536c-4.49 4.128-9.462 8.64-10.958 10.032l-2.8 2.592V48h27.034V20.16h-7c-3.862 0-7-.096-7-.24s2.076-4.56 4.586-9.888C49.15 4.704 51.127.288 51.08.24c-.096-.096-3.814 3.216-8.352 7.296Z' fill='currentColor'/></symbol>


        <symbol id="icon-quotes" viewBox="0 0 272.13 175.75">
        <defs>
           
            <clipPath id="clippath">
                <rect class="cls-2" x="35.59" y="14.5" width="201.76" height="147.07"/>
                </clipPath>
            </defs>
            <g class="cls-3">
                <path class="cls-1" d="M87.11,27.66c-15.28,9.99-27.69,22.36-37.22,37.11-9.53,14.75-14.3,29.01-14.3,42.78,0,15.59,4.77,28.52,14.3,38.81,9.08,10.14,20.12,15.21,33.14,15.21s24.43-4.61,32.91-13.84c7.56-8.32,11.35-18,11.35-29.05s-3.03-20.39-9.08-28.03c-6.05-7.64-14-12.14-23.83-13.5l-3.63-.45-2.72-.23c-4.54-.6-6.81-2.35-6.81-5.22,0-3.03,2.95-7.79,8.85-14.3,6.35-6.81,16.41-13.84,30.18-21.11,5.75-3.02,8.62-6.81,8.62-11.35,0-2.87-.99-5.26-2.95-7.15-1.97-1.89-4.46-2.84-7.49-2.84-7.57,0-18.01,4.39-31.32,13.16M195.59,27.66c-15.28,9.99-27.69,22.36-37.22,37.11-9.53,14.75-14.3,29.01-14.3,42.78,0,15.59,4.77,28.52,14.3,38.81,9.08,10.14,20.12,15.21,33.14,15.21s24.43-4.61,32.91-13.84c7.56-8.32,11.35-18,11.35-29.05s-3.03-20.39-9.08-28.03c-6.05-7.64-14-12.14-23.83-13.5l-3.63-.45-2.72-.23c-4.54-.6-6.81-2.35-6.81-5.22,0-3.03,2.95-7.79,8.85-14.3,6.35-6.81,16.42-13.84,30.19-21.11,5.75-3.02,8.62-6.81,8.62-11.35,0-2.87-.99-5.26-2.95-7.15-1.97-1.89-4.46-2.84-7.49-2.84-7.57,0-18.01,4.39-31.32,13.16"/>
            </g>
        </symbol>




    </defs>
</svg>

