<svg xmlns="http://www.w3.org/2000/svg" width="14" height="14" viewBox="0 0 14 14" fill="none">
    <path d="M14 6.58688L11.095 6.58688C11.095 4.55455 9.44704 2.90656 7.41471 2.90656L7.41471 0.00159807C11.0512 0.00159823 14 2.95043 14 6.58688Z" fill="#1D857D"/>
    <path d="M8.63556e-07 7.41537L2.90497 7.41537C2.90496 9.4477 4.55296 11.0957 6.58529 11.0957L6.58529 14.0007C2.94883 14.0007 3.86693e-07 11.0518 8.63556e-07 7.41537Z" fill="#1D857D"/>
    <path d="M7.41471 14.0004L7.41471 11.0954C9.44704 11.0954 11.095 9.44741 11.095 7.41508L14 7.41508C14 11.0515 11.0512 14.0004 7.41471 14.0004Z" fill="#1D857D"/>
    <path d="M6.58529 3.86719e-07L6.58529 2.90497C4.55296 2.90497 2.90496 4.55296 2.90496 6.58529L0 6.58529C4.76863e-07 2.94883 2.94884 -9.01442e-08 6.58529 3.86719e-07Z" fill="#1D857D"/>
</svg>
